<svg width="24" height="24" viewBox="0 0 24 24" fill="none" xmlns="http://www.w3.org/2000/svg">
<path d="M14.4301 18.8211C14.2401 18.8211 14.0501 18.7511 13.9001 18.6011C13.6101 18.3111 13.6101 17.8311 13.9001 17.5411L19.4401 12.0011L13.9001 6.46109C13.6101 6.17109 13.6101 5.69109 13.9001 5.40109C14.1901 5.11109 14.6701 5.11109 14.9601 5.40109L21.0301 11.4711C21.3201 11.7611 21.3201 12.2411 21.0301 12.5311L14.9601 18.6011C14.8101 18.7511 14.6201 18.8211 14.4301 18.8211Z" fill="#0A0A0A"/>
<path d="M20.332 12.75H3.50195C3.09195 12.75 2.75195 12.41 2.75195 12C2.75195 11.59 3.09195 11.25 3.50195 11.25H20.332C20.742 11.25 21.082 11.59 21.082 12C21.082 12.41 20.742 12.75 20.332 12.75Z" fill="#0A0A0A"/>
</svg>
